# xmcd
#
# Track frame offsets:
#	150
#	11868
#	23874
#	34276
#	46388
#	60793
#	73640
#	85541
#	98519
#	110414
#
# Disc length: 1620 seconds
#
# Revision: 1
# Processed by: cddbd v1.5.2PL0 Copyright (c) Steve Scherf et al.
# Submitted via: audiograbber 1.83.01
#
DISCID=7206520a
DTITLE=Hank Thompson - The Thompson Touch
DYEAR=1977
DGENRE=Country
TTITLE0=Don't Get Around Much Anymore
TTITLE1=She's Just A Whole Lot Like You
TTITLE2=Simple Simon, Simple Heart
TTITLE3=It Gets More Like Monday Everyday
TTITLE4=Just An Old Flame
TTITLE5=Bumming Around
TTITLE6=Just One Step Away
TTITLE7=When Youv'e Seen One Broken Heart
TTITLE8=Absent Minded Me
TTITLE9=Comin' In For Rye
EXTD=
EXTT0=
EXTT1=
EXTT2=
EXTT3=
EXTT4=
EXTT5=
EXTT6=
EXTT7=
EXTT8=
EXTT9=
PLAYORDER=
